# xmcd
#
# Track frame offsets: 
#        150
#        10570
#        23869
#        40175
#        54720
#        66867
#        79578
#        94158
#        112660
#        125594
#        138152
#        148667
#        158570
#        170141
#        181700
#        192156
#        205055
#        217448
#        234588
#        243739
#
# Disc length: 3398 seconds
#
# Revision: 0
# Processed by: cddbd v1.5.2PL0 Copyright (c) Steve Scherf et al.
# Submitted via: ExactAudioCopy v1.3
#
DISCID=150d4414
DTITLE=Johnny Paycheck - Johnny Paycheck Forever
DYEAR=2017
DGENRE=Country
TTITLE0=Motel Time Again
TTITLE1=Slide Off Your Satin Sheets
TTITLE2=Danny Boy
TTITLE3=Green Green Grass Of Home
TTITLE4=Something About You
TTITLE5=All The Time
TTITLE6=Almost Persuaded
TTITLE7=Billy Jack Washburn
TTITLE8=Close All The Honky Tonks
TTITLE9=Crazy Arms
TTITLE10=Don't Monkey With Another Monkey's Monkey
TTITLE11=Lovin' You Beats All
TTITLE12=For A Minute There
TTITLE13=Heartaches By The Number
TTITLE14=Jukebox Charlie
TTITLE15=Heaven's Almost As Big As Texas
TTITLE16=Keep On Lovin' Me
TTITLE17=Memory Of A Memory
TTITLE18=Mr. Love Maker
TTITLE19=Release Me
EXTD=
EXTT0=
EXTT1=
EXTT2=
EXTT3=
EXTT4=
EXTT5=
EXTT6=
EXTT7=
EXTT8=
EXTT9=
EXTT10=
EXTT11=
EXTT12=
EXTT13=
EXTT14=
EXTT15=
EXTT16=
EXTT17=
EXTT18=
EXTT19=
PLAYORDER=
